<svg id="visual" viewBox="0 0 900 600" width="900" height="600" xmlns="http://www.w3.org/2000/svg" xmlns:xlink="http://www.w3.org/1999/xlink" version="1.1"><path d="M0 537L13.7 538.5C27.3 540 54.7 543 82 542.5C109.3 542 136.7 538 163.8 539.5C191 541 218 548 245.2 548.3C272.3 548.7 299.7 542.3 327 537.2C354.3 532 381.7 528 409 525.8C436.3 523.7 463.7 523.3 491 528.7C518.3 534 545.7 545 573 545.8C600.3 546.7 627.7 537.3 654.8 532C682 526.7 709 525.3 736.2 524.5C763.3 523.7 790.7 523.3 818 525.2C845.3 527 872.7 531 886.3 533L900 535L900 601L886.3 601C872.7 601 845.3 601 818 601C790.7 601 763.3 601 736.2 601C709 601 682 601 654.8 601C627.7 601 600.3 601 573 601C545.7 601 518.3 601 491 601C463.7 601 436.3 601 409 601C381.7 601 354.3 601 327 601C299.7 601 272.3 601 245.2 601C218 601 191 601 163.8 601C136.7 601 109.3 601 82 601C54.7 601 27.3 601 13.7 601L0 601Z" fill="#0f172b" stroke-linecap="round" stroke-linejoin="miter"></path></svg>